<mxfile host="app.diagrams.net" agent="Mozilla/5.0 (Windows NT 10.0; Win64; x64) AppleWebKit/537.36 (KHTML, like Gecko) Chrome/132.0.0.0 Safari/537.36" version="26.0.10">
  <diagram name="Página-1" id="rD3Ho5AwQarjyv_JyWd1">
    <mxGraphModel dx="2625" dy="1413" grid="1" gridSize="10" guides="1" tooltips="1" connect="1" arrows="1" fold="1" page="1" pageScale="1" pageWidth="827" pageHeight="1169" math="0" shadow="0">
      <root>
        <mxCell id="0" />
        <mxCell id="1" parent="0" />
        <mxCell id="PHwLgutXbXaxEB8u_pnU-8" value="" style="edgeStyle=orthogonalEdgeStyle;rounded=0;orthogonalLoop=1;jettySize=auto;html=1;" edge="1" parent="1" source="PHwLgutXbXaxEB8u_pnU-1" target="PHwLgutXbXaxEB8u_pnU-7">
          <mxGeometry relative="1" as="geometry" />
        </mxCell>
        <mxCell id="PHwLgutXbXaxEB8u_pnU-1" value="INÍCIO" style="rounded=1;whiteSpace=wrap;html=1;fontSize=18;" vertex="1" parent="1">
          <mxGeometry x="320" y="80" width="120" height="60" as="geometry" />
        </mxCell>
        <mxCell id="PHwLgutXbXaxEB8u_pnU-11" value="" style="edgeStyle=orthogonalEdgeStyle;rounded=0;orthogonalLoop=1;jettySize=auto;html=1;" edge="1" parent="1" source="PHwLgutXbXaxEB8u_pnU-7" target="PHwLgutXbXaxEB8u_pnU-9">
          <mxGeometry relative="1" as="geometry" />
        </mxCell>
        <mxCell id="PHwLgutXbXaxEB8u_pnU-7" value="n1, n2 e n3" style="html=1;strokeWidth=2;shape=manualInput;whiteSpace=wrap;rounded=1;size=26;arcSize=11;fontSize=14;" vertex="1" parent="1">
          <mxGeometry x="330" y="200" width="100" height="60" as="geometry" />
        </mxCell>
        <mxCell id="PHwLgutXbXaxEB8u_pnU-14" value="" style="edgeStyle=orthogonalEdgeStyle;rounded=0;orthogonalLoop=1;jettySize=auto;html=1;" edge="1" parent="1" source="PHwLgutXbXaxEB8u_pnU-9" target="PHwLgutXbXaxEB8u_pnU-13">
          <mxGeometry relative="1" as="geometry" />
        </mxCell>
        <mxCell id="PHwLgutXbXaxEB8u_pnU-9" value="media = (n1+n2+n3) / 3" style="rounded=0;whiteSpace=wrap;html=1;" vertex="1" parent="1">
          <mxGeometry x="290" y="320" width="180" height="60" as="geometry" />
        </mxCell>
        <mxCell id="PHwLgutXbXaxEB8u_pnU-16" value="" style="edgeStyle=orthogonalEdgeStyle;rounded=0;orthogonalLoop=1;jettySize=auto;html=1;" edge="1" parent="1" source="PHwLgutXbXaxEB8u_pnU-13" target="PHwLgutXbXaxEB8u_pnU-15">
          <mxGeometry relative="1" as="geometry" />
        </mxCell>
        <mxCell id="PHwLgutXbXaxEB8u_pnU-18" value="" style="edgeStyle=orthogonalEdgeStyle;rounded=0;orthogonalLoop=1;jettySize=auto;html=1;entryX=0.5;entryY=0;entryDx=0;entryDy=0;entryPerimeter=0;" edge="1" parent="1" source="PHwLgutXbXaxEB8u_pnU-13" target="PHwLgutXbXaxEB8u_pnU-20">
          <mxGeometry relative="1" as="geometry">
            <mxPoint x="570" y="515" as="targetPoint" />
          </mxGeometry>
        </mxCell>
        <mxCell id="PHwLgutXbXaxEB8u_pnU-13" value="media &amp;gt;= 0&lt;div&gt;&amp;nbsp;e&amp;nbsp;&lt;/div&gt;&lt;div&gt;media &amp;lt;= 4&lt;/div&gt;" style="rhombus;whiteSpace=wrap;html=1;fontSize=19;" vertex="1" parent="1">
          <mxGeometry x="290" y="440" width="180" height="170" as="geometry" />
        </mxCell>
        <mxCell id="PHwLgutXbXaxEB8u_pnU-40" style="edgeStyle=orthogonalEdgeStyle;rounded=0;orthogonalLoop=1;jettySize=auto;html=1;exitX=-0.018;exitY=0.88;exitDx=0;exitDy=0;exitPerimeter=0;" edge="1" parent="1" source="PHwLgutXbXaxEB8u_pnU-15" target="PHwLgutXbXaxEB8u_pnU-37">
          <mxGeometry relative="1" as="geometry">
            <mxPoint x="-60" y="550" as="sourcePoint" />
            <mxPoint x="130" y="1040" as="targetPoint" />
            <Array as="points">
              <mxPoint x="110" y="555" />
              <mxPoint x="110" y="1050" />
            </Array>
          </mxGeometry>
        </mxCell>
        <mxCell id="PHwLgutXbXaxEB8u_pnU-15" value="&quot;Reprovado&quot;" style="shape=document;whiteSpace=wrap;html=1;boundedLbl=1;" vertex="1" parent="1">
          <mxGeometry x="70" y="485" width="120" height="80" as="geometry" />
        </mxCell>
        <mxCell id="PHwLgutXbXaxEB8u_pnU-19" value="SIM" style="text;html=1;align=center;verticalAlign=middle;whiteSpace=wrap;rounded=0;" vertex="1" parent="1">
          <mxGeometry x="220" y="485" width="60" height="30" as="geometry" />
        </mxCell>
        <mxCell id="PHwLgutXbXaxEB8u_pnU-23" value="" style="edgeStyle=orthogonalEdgeStyle;rounded=0;orthogonalLoop=1;jettySize=auto;html=1;" edge="1" parent="1" source="PHwLgutXbXaxEB8u_pnU-20" target="PHwLgutXbXaxEB8u_pnU-22">
          <mxGeometry relative="1" as="geometry" />
        </mxCell>
        <mxCell id="PHwLgutXbXaxEB8u_pnU-26" value="" style="edgeStyle=orthogonalEdgeStyle;rounded=0;orthogonalLoop=1;jettySize=auto;html=1;" edge="1" parent="1" source="PHwLgutXbXaxEB8u_pnU-20" target="PHwLgutXbXaxEB8u_pnU-25">
          <mxGeometry relative="1" as="geometry" />
        </mxCell>
        <mxCell id="PHwLgutXbXaxEB8u_pnU-20" value="media &amp;gt; 4&lt;div&gt;e&amp;nbsp;&lt;/div&gt;&lt;div&gt;media &amp;lt; 7&lt;/div&gt;" style="strokeWidth=2;html=1;shape=mxgraph.flowchart.decision;whiteSpace=wrap;fontSize=16;" vertex="1" parent="1">
          <mxGeometry x="560" y="630" width="180" height="160" as="geometry" />
        </mxCell>
        <mxCell id="PHwLgutXbXaxEB8u_pnU-21" value="NÃO" style="text;html=1;align=center;verticalAlign=middle;whiteSpace=wrap;rounded=0;" vertex="1" parent="1">
          <mxGeometry x="530" y="480" width="60" height="30" as="geometry" />
        </mxCell>
        <mxCell id="PHwLgutXbXaxEB8u_pnU-41" style="edgeStyle=orthogonalEdgeStyle;rounded=0;orthogonalLoop=1;jettySize=auto;html=1;entryX=0.5;entryY=0;entryDx=0;entryDy=0;" edge="1" parent="1" source="PHwLgutXbXaxEB8u_pnU-22" target="PHwLgutXbXaxEB8u_pnU-37">
          <mxGeometry relative="1" as="geometry" />
        </mxCell>
        <mxCell id="PHwLgutXbXaxEB8u_pnU-22" value="&quot;RECUPERAÇÃO&quot;" style="shape=document;whiteSpace=wrap;html=1;boundedLbl=1;strokeWidth=2;" vertex="1" parent="1">
          <mxGeometry x="320" y="670" width="120" height="80" as="geometry" />
        </mxCell>
        <mxCell id="PHwLgutXbXaxEB8u_pnU-24" value="SIM" style="text;html=1;align=center;verticalAlign=middle;whiteSpace=wrap;rounded=0;" vertex="1" parent="1">
          <mxGeometry x="480" y="670" width="60" height="30" as="geometry" />
        </mxCell>
        <mxCell id="PHwLgutXbXaxEB8u_pnU-30" value="" style="edgeStyle=orthogonalEdgeStyle;rounded=0;orthogonalLoop=1;jettySize=auto;html=1;" edge="1" parent="1" source="PHwLgutXbXaxEB8u_pnU-25" target="PHwLgutXbXaxEB8u_pnU-29">
          <mxGeometry relative="1" as="geometry" />
        </mxCell>
        <mxCell id="PHwLgutXbXaxEB8u_pnU-32" value="" style="edgeStyle=orthogonalEdgeStyle;rounded=0;orthogonalLoop=1;jettySize=auto;html=1;" edge="1" parent="1" source="PHwLgutXbXaxEB8u_pnU-25" target="PHwLgutXbXaxEB8u_pnU-31">
          <mxGeometry relative="1" as="geometry" />
        </mxCell>
        <mxCell id="PHwLgutXbXaxEB8u_pnU-25" value="media &amp;gt; 7&lt;div&gt;e&amp;nbsp;&lt;/div&gt;&lt;div&gt;media &amp;lt;= 10&lt;/div&gt;" style="rhombus;whiteSpace=wrap;html=1;fontSize=16;strokeWidth=2;" vertex="1" parent="1">
          <mxGeometry x="810" y="830" width="170" height="160" as="geometry" />
        </mxCell>
        <mxCell id="PHwLgutXbXaxEB8u_pnU-28" value="NÃO" style="text;html=1;align=center;verticalAlign=middle;whiteSpace=wrap;rounded=0;" vertex="1" parent="1">
          <mxGeometry x="790" y="670" width="60" height="30" as="geometry" />
        </mxCell>
        <mxCell id="PHwLgutXbXaxEB8u_pnU-29" value="&quot;APROVADO&quot;" style="shape=document;whiteSpace=wrap;html=1;boundedLbl=1;fontSize=16;strokeWidth=2;" vertex="1" parent="1">
          <mxGeometry x="585" y="870" width="120" height="80" as="geometry" />
        </mxCell>
        <mxCell id="PHwLgutXbXaxEB8u_pnU-43" style="edgeStyle=orthogonalEdgeStyle;rounded=0;orthogonalLoop=1;jettySize=auto;html=1;entryX=0.983;entryY=0.883;entryDx=0;entryDy=0;entryPerimeter=0;" edge="1" parent="1" source="PHwLgutXbXaxEB8u_pnU-31" target="PHwLgutXbXaxEB8u_pnU-37">
          <mxGeometry relative="1" as="geometry">
            <mxPoint x="1120" y="1120" as="targetPoint" />
            <Array as="points">
              <mxPoint x="1200" y="1060" />
              <mxPoint x="490" y="1060" />
              <mxPoint x="490" y="1073" />
            </Array>
          </mxGeometry>
        </mxCell>
        <mxCell id="PHwLgutXbXaxEB8u_pnU-31" value="&quot;Erro de digitação&quot;" style="shape=document;whiteSpace=wrap;html=1;boundedLbl=1;fontSize=16;strokeWidth=2;" vertex="1" parent="1">
          <mxGeometry x="1085" y="870" width="120" height="80" as="geometry" />
        </mxCell>
        <mxCell id="PHwLgutXbXaxEB8u_pnU-34" value="SIM" style="text;html=1;align=center;verticalAlign=middle;whiteSpace=wrap;rounded=0;" vertex="1" parent="1">
          <mxGeometry x="740" y="870" width="60" height="30" as="geometry" />
        </mxCell>
        <mxCell id="PHwLgutXbXaxEB8u_pnU-36" value="NÃO" style="text;html=1;align=center;verticalAlign=middle;whiteSpace=wrap;rounded=0;" vertex="1" parent="1">
          <mxGeometry x="990" y="870" width="60" height="30" as="geometry" />
        </mxCell>
        <mxCell id="PHwLgutXbXaxEB8u_pnU-37" value="FIM" style="rounded=1;whiteSpace=wrap;html=1;" vertex="1" parent="1">
          <mxGeometry x="320" y="1020" width="120" height="60" as="geometry" />
        </mxCell>
        <mxCell id="PHwLgutXbXaxEB8u_pnU-38" style="edgeStyle=orthogonalEdgeStyle;rounded=0;orthogonalLoop=1;jettySize=auto;html=1;" edge="1" parent="1" source="PHwLgutXbXaxEB8u_pnU-29" target="PHwLgutXbXaxEB8u_pnU-29">
          <mxGeometry relative="1" as="geometry" />
        </mxCell>
        <mxCell id="PHwLgutXbXaxEB8u_pnU-39" style="edgeStyle=orthogonalEdgeStyle;rounded=0;orthogonalLoop=1;jettySize=auto;html=1;" edge="1" parent="1" source="PHwLgutXbXaxEB8u_pnU-29" target="PHwLgutXbXaxEB8u_pnU-29">
          <mxGeometry relative="1" as="geometry" />
        </mxCell>
        <mxCell id="PHwLgutXbXaxEB8u_pnU-42" style="edgeStyle=orthogonalEdgeStyle;rounded=0;orthogonalLoop=1;jettySize=auto;html=1;entryX=0.93;entryY=0.07;entryDx=0;entryDy=0;entryPerimeter=0;" edge="1" parent="1" source="PHwLgutXbXaxEB8u_pnU-29" target="PHwLgutXbXaxEB8u_pnU-37">
          <mxGeometry relative="1" as="geometry" />
        </mxCell>
      </root>
    </mxGraphModel>
  </diagram>
</mxfile>
